<svg width="18" height="19" viewBox="0 0 18 19" fill="none" xmlns="http://www.w3.org/2000/svg">
<path d="M15.75 5.49902C15.6176 5.56759 15.4634 5.58078 15.3213 5.53569C15.1791 5.49059 15.0607 5.39091 14.992 5.25855C14.4551 4.19788 13.6425 3.3014 12.6394 2.66332C12.5769 2.62389 12.5227 2.57254 12.4801 2.51219C12.4374 2.45184 12.4071 2.38368 12.3907 2.3116C12.3744 2.23952 12.3724 2.16493 12.3849 2.09209C12.3975 2.01924 12.4242 1.94958 12.4636 1.88707C12.503 1.82456 12.5544 1.77042 12.6147 1.72776C12.6751 1.68509 12.7432 1.65473 12.8153 1.63841C12.8874 1.62209 12.962 1.62012 13.0348 1.63263C13.1077 1.64513 13.1773 1.67186 13.2399 1.71129C14.4089 2.45979 15.3581 3.50535 15.9905 4.74105C16.059 4.87346 16.0722 5.02768 16.0271 5.16981C15.9821 5.31194 15.8824 5.43036 15.75 5.49902ZM2.51087 5.5623C2.61392 5.56226 2.71498 5.53391 2.80302 5.48034C2.89106 5.42678 2.96269 5.35005 3.01009 5.25855C3.547 4.19788 4.35968 3.3014 5.36275 2.66332C5.48899 2.58369 5.57844 2.45717 5.61141 2.3116C5.64437 2.16602 5.61816 2.01332 5.53853 1.88707C5.4589 1.76082 5.33239 1.67138 5.18681 1.63841C5.04123 1.60545 4.88853 1.63166 4.76228 1.71129C3.59327 2.45979 2.64403 3.50535 2.01165 4.74105C1.96724 4.82678 1.94564 4.92249 1.94894 5.01898C1.95223 5.11547 1.9803 5.20949 2.03045 5.29199C2.0806 5.37448 2.15114 5.44269 2.23528 5.49003C2.31942 5.53737 2.41433 5.56226 2.51087 5.5623ZM15.596 12.8706C15.6957 13.0415 15.7485 13.2356 15.7492 13.4334C15.7499 13.6313 15.6984 13.8258 15.5999 13.9973C15.5014 14.1689 15.3594 14.3115 15.1883 14.4107C15.0171 14.5099 14.8228 14.5622 14.625 14.5623H11.7563C11.6272 15.1981 11.2822 15.7697 10.7799 16.1803C10.2776 16.5908 9.64878 16.8151 9.00001 16.8151C8.35125 16.8151 7.72244 16.5908 7.22012 16.1803C6.7178 15.7697 6.37287 15.1981 6.24376 14.5623H3.37501C3.17731 14.5619 2.9832 14.5094 2.81224 14.4101C2.64127 14.3108 2.4995 14.1683 2.40118 13.9967C2.30287 13.8252 2.2515 13.6308 2.25224 13.4331C2.25298 13.2354 2.30581 13.0414 2.4054 12.8706C3.03892 11.7772 3.37501 10.2226 3.37501 8.3748C3.37501 6.88296 3.96765 5.45222 5.02254 4.39733C6.07743 3.34243 7.50817 2.7498 9.00001 2.7498C10.4919 2.7498 11.9226 3.34243 12.9775 4.39733C14.0324 5.45222 14.625 6.88296 14.625 8.3748C14.625 10.2219 14.9611 11.7765 15.596 12.8706ZM10.5905 14.5623H7.40954C7.52608 14.891 7.74157 15.1754 8.02637 15.3766C8.31118 15.5778 8.65131 15.6858 9.00001 15.6858C9.34871 15.6858 9.68885 15.5778 9.97365 15.3766C10.2585 15.1754 10.4739 14.891 10.5905 14.5623Z" fill="white"/>
</svg>
