<svg width="18" height="19" viewBox="0 0 18 19" fill="none" xmlns="http://www.w3.org/2000/svg">
<path d="M15.5954 12.8708C15.2051 12.1986 14.625 10.2966 14.625 7.8125C14.625 6.32066 14.0324 4.88992 12.9775 3.83502C11.9226 2.78013 10.4919 2.1875 9.00004 2.1875C7.5082 2.1875 6.07746 2.78013 5.02256 3.83502C3.96767 4.88992 3.37504 6.32066 3.37504 7.8125C3.37504 10.2973 2.79426 12.1986 2.40402 12.8708C2.30437 13.0417 2.25154 13.2358 2.25086 13.4336C2.25018 13.6315 2.30168 13.826 2.40016 13.9975C2.49863 14.1691 2.64061 14.3117 2.81177 14.4109C2.98293 14.5101 3.17722 14.5624 3.37504 14.5625H6.24449C6.37427 15.1975 6.7194 15.7683 7.22151 16.1781C7.72362 16.588 8.35188 16.8119 9.00004 16.8119C9.6482 16.8119 10.2765 16.588 10.7786 16.1781C11.2807 15.7683 11.6258 15.1975 11.7556 14.5625H14.625C14.8228 14.5622 15.017 14.5098 15.1881 14.4106C15.3591 14.3114 15.501 14.1688 15.5994 13.9972C15.6978 13.8257 15.7492 13.6312 15.7485 13.4335C15.7478 13.2357 15.695 13.0416 15.5954 12.8708ZM9.00004 15.6875C8.65116 15.6874 8.31089 15.5792 8.02607 15.3777C7.74124 15.1762 7.52586 14.8914 7.40957 14.5625H10.5905C10.4742 14.8914 10.2588 15.1762 9.97401 15.3777C9.68918 15.5792 9.34892 15.6874 9.00004 15.6875ZM3.37504 13.4375C3.91645 12.5066 4.50004 10.3494 4.50004 7.8125C4.50004 6.61903 4.97415 5.47443 5.81806 4.63052C6.66197 3.78661 7.80657 3.3125 9.00004 3.3125C10.1935 3.3125 11.3381 3.78661 12.182 4.63052C13.0259 5.47443 13.5 6.61903 13.5 7.8125C13.5 10.3473 14.0822 12.5045 14.625 13.4375H3.37504Z" fill="white"/>
</svg>
